<svg xmlns="http://www.w3.org/2000/svg" viewBox="0 0 900 140" width="900" height="140" role="img" aria-label="GitHub trophies"><style>.fade{animation:f .8s ease-out both}@keyframes f{from{opacity:0;transform:translateY(8px)}to{opacity:1;transform:none}}.grow{transform-box:fill-box;transform-origin:left center;animation:g 1.2s ease-out both}@keyframes g{from{transform:scaleX(0)}to{transform:scaleX(1)}}</style><rect x=".5" y=".5" width="899" height="139" rx="14" fill="#050d1f" stroke="#16305f"/><g transform="translate(60,0)"><g class="fade" style="animation-delay:0.00s"><g transform="translate(0,58)" fill="none" stroke="#cd7f32" stroke-width="4" stroke-linecap="round"><path d="M-16 -24h32v14a16 16 0 0 1-32 0z" fill="#cd7f32" fill-opacity=".2"/><path d="M-16 -18h-8a8 8 0 0 0 8 14M16 -18h8a8 8 0 0 1-8 14M0 6v12M-10 20h20"/></g><text y="98" font-size="13" font-weight="700" fill="#ffffff" text-anchor="middle" font-family="'Segoe UI',Roboto,Helvetica,Arial,sans-serif">Stars</text><text y="116" font-size="12" fill="#cd7f32" text-anchor="middle" font-family="'Segoe UI',Roboto,Helvetica,Arial,sans-serif">Bronze - 4</text></g></g><g transform="translate(190,0)"><g class="fade" style="animation-delay:0.12s"><g transform="translate(0,58)" fill="none" stroke="#7ee7ff" stroke-width="4" stroke-linecap="round"><path d="M-16 -24h32v14a16 16 0 0 1-32 0z" fill="#7ee7ff" fill-opacity=".2"/><path d="M-16 -18h-8a8 8 0 0 0 8 14M16 -18h8a8 8 0 0 1-8 14M0 6v12M-10 20h20"/></g><text y="98" font-size="13" font-weight="700" fill="#ffffff" text-anchor="middle" font-family="'Segoe UI',Roboto,Helvetica,Arial,sans-serif">Commits</text><text y="116" font-size="12" fill="#7ee7ff" text-anchor="middle" font-family="'Segoe UI',Roboto,Helvetica,Arial,sans-serif">Platinum - 2,529</text></g></g><g transform="translate(320,0)"><g class="fade" style="animation-delay:0.24s"><g transform="translate(0,58)" fill="none" stroke="#cd7f32" stroke-width="4" stroke-linecap="round"><path d="M-16 -24h32v14a16 16 0 0 1-32 0z" fill="#cd7f32" fill-opacity=".2"/><path d="M-16 -18h-8a8 8 0 0 0 8 14M16 -18h8a8 8 0 0 1-8 14M0 6v12M-10 20h20"/></g><text y="98" font-size="13" font-weight="700" fill="#ffffff" text-anchor="middle" font-family="'Segoe UI',Roboto,Helvetica,Arial,sans-serif">Followers</text><text y="116" font-size="12" fill="#cd7f32" text-anchor="middle" font-family="'Segoe UI',Roboto,Helvetica,Arial,sans-serif">Bronze - 8</text></g></g><g transform="translate(450,0)"><g class="fade" style="animation-delay:0.36s"><g transform="translate(0,58)" fill="none" stroke="#c0c0c0" stroke-width="4" stroke-linecap="round"><path d="M-16 -24h32v14a16 16 0 0 1-32 0z" fill="#c0c0c0" fill-opacity=".2"/><path d="M-16 -18h-8a8 8 0 0 0 8 14M16 -18h8a8 8 0 0 1-8 14M0 6v12M-10 20h20"/></g><text y="98" font-size="13" font-weight="700" fill="#ffffff" text-anchor="middle" font-family="'Segoe UI',Roboto,Helvetica,Arial,sans-serif">Repos</text><text y="116" font-size="12" fill="#c0c0c0" text-anchor="middle" font-family="'Segoe UI',Roboto,Helvetica,Arial,sans-serif">Silver - 13</text></g></g><g transform="translate(580,0)"><g class="fade" style="animation-delay:0.48s"><g transform="translate(0,58)" fill="none" stroke="#cd7f32" stroke-width="4" stroke-linecap="round"><path d="M-16 -24h32v14a16 16 0 0 1-32 0z" fill="#cd7f32" fill-opacity=".2"/><path d="M-16 -18h-8a8 8 0 0 0 8 14M16 -18h8a8 8 0 0 1-8 14M0 6v12M-10 20h20"/></g><text y="98" font-size="13" font-weight="700" fill="#ffffff" text-anchor="middle" font-family="'Segoe UI',Roboto,Helvetica,Arial,sans-serif">Pull Requests</text><text y="116" font-size="12" fill="#cd7f32" text-anchor="middle" font-family="'Segoe UI',Roboto,Helvetica,Arial,sans-serif">Bronze - 12</text></g></g><g transform="translate(710,0)"><g class="fade" style="animation-delay:0.60s"><g transform="translate(0,58)" fill="none" stroke="#c0c0c0" stroke-width="4" stroke-linecap="round"><path d="M-16 -24h32v14a16 16 0 0 1-32 0z" fill="#c0c0c0" fill-opacity=".2"/><path d="M-16 -18h-8a8 8 0 0 0 8 14M16 -18h8a8 8 0 0 1-8 14M0 6v12M-10 20h20"/></g><text y="98" font-size="13" font-weight="700" fill="#ffffff" text-anchor="middle" font-family="'Segoe UI',Roboto,Helvetica,Arial,sans-serif">Issues</text><text y="116" font-size="12" fill="#c0c0c0" text-anchor="middle" font-family="'Segoe UI',Roboto,Helvetica,Arial,sans-serif">Silver - 12</text></g></g><g transform="translate(840,0)"><g class="fade" style="animation-delay:0.72s"><g transform="translate(0,58)" fill="none" stroke="#cd7f32" stroke-width="4" stroke-linecap="round"><path d="M-16 -24h32v14a16 16 0 0 1-32 0z" fill="#cd7f32" fill-opacity=".2"/><path d="M-16 -18h-8a8 8 0 0 0 8 14M16 -18h8a8 8 0 0 1-8 14M0 6v12M-10 20h20"/></g><text y="98" font-size="13" font-weight="700" fill="#ffffff" text-anchor="middle" font-family="'Segoe UI',Roboto,Helvetica,Arial,sans-serif">Streak</text><text y="116" font-size="12" fill="#cd7f32" text-anchor="middle" font-family="'Segoe UI',Roboto,Helvetica,Arial,sans-serif">Bronze - 6</text></g></g></svg>